<svg width="374" height="518" viewBox="0 0 374 518" fill="none" xmlns="http://www.w3.org/2000/svg">
<g clip-path="url(#clip0_586_6478)">
<path d="M222.883 105.759H322.053V329.171L188.501 426.159L54.9476 329.171V105.759H154.118L188.516 0L222.898 105.759H222.883Z" fill="#2B2986"/>
<path d="M265.232 218.295H299.675V128.145H265.232L217.81 162.576H265.232V218.295Z" fill="#F46112"/>
<path d="M111.799 128.145H77.3562V218.295H111.799V128.145Z" fill="white"/>
<path d="M134.117 317.765H77.3562L188.516 398.489V357.267L134.117 317.765Z" fill="white"/>
<path d="M242.915 317.765H299.675L188.516 398.489V357.267L242.915 317.765Z" fill="#F46112"/>
<path d="M188.516 72.425L141.109 218.295L188.516 183.864L235.923 218.295L188.516 72.425Z" fill="#F46112"/>
<path d="M224.817 288.04L211.244 297.893H166.549L155.703 290.02V246.026L166.549 238.153H211.244L223.583 247.122L210.01 256.975L204.161 252.726H172.917V289.883H174.379L183.412 283.32H204.161L211.244 278.172L224.817 288.025V288.04ZM77.3562 238.153V297.908H94.5854V252.726H127.201V297.908H144.43V238.153H77.3714H77.3562ZM299.675 268.655V290.02L288.829 297.893H233.059V238.138H296.187L291.784 251.676H250.273V260.767H288.829L299.675 268.64V268.655ZM282.446 274H250.273V289.502H251.735L258.971 284.248H282.446V274Z" fill="white"/>
<path d="M170.403 128.145H111.799L159.206 162.576L170.403 128.145Z" fill="white"/>
<path d="M69.1301 508.132L55.5569 518H10.8463L0 510.112V466.133L10.8463 458.245H55.5569L67.8961 467.214L54.323 477.067L48.4733 472.818H17.2292V509.975H18.6916L27.7251 503.426H48.4733L55.5569 498.279L69.1301 508.132Z" fill="#2B2986"/>
<path d="M77.3562 458.245V518H94.5702V472.818H127.185V518H144.415V458.245H77.3562Z" fill="#2B2986"/>
<path d="M300.879 466.133V494.823L290.032 502.695H251.994V518H234.765V458.245H290.032L300.879 466.118V466.133ZM283.649 472.818H251.979V494.67H253.441L262.475 488.107H283.649V472.803V472.818Z" fill="#2B2986"/>
<path d="M374 458.245H308.663V472.818H332.717V518H349.946V472.818H374V458.245Z" fill="#2B2986"/>
<path d="M223.492 466.133V510.127L212.646 518H166.549L155.703 510.127V466.133L166.549 458.26H212.646L223.492 466.133ZM206.263 472.818H172.917V509.975H174.379L183.412 503.411H206.263V472.803V472.818Z" fill="#2B2986"/>
</g>
<defs>
<clipPath id="clip0_586_6478">
<rect width="374" height="518" fill="white"/>
</clipPath>
</defs>
</svg>
